# xmcd CD database file
#
# Track frame offsets:
#	150
#	15445
#	33205
#	51497
#	65450
#	86470
#	99737
#	120977
#	141612
#	159240
#	172945
#	187907
#
# Disc length: 2758 seconds
#
# Revision: 4
# Processed by: cddbd v1.5PL3 Copyright (c) Steve Scherf et al.
# Submitted via: CDex 1.51
#
DISCID=920ac40c
DTITLE=Elvin Bishop - The Skin I'm In
DYEAR=1998
DGENRE=Blues
TTITLE0=Right Now is the Hour
TTITLE1=I'm Gone
TTITLE2=The Skin They're In
TTITLE3=Middle Aged Man
TTITLE4=Country Blues
TTITLE5=That Train Is Gone
TTITLE6=Long Shadows
TTITLE7=Slow Down
TTITLE8=Mellow-D
TTITLE9=Radio Boogie
TTITLE10=Way Down in the Valley
TTITLE11=Shady Lane
EXTD=YEAR: 1998
EXTT0=
EXTT1=
EXTT2=
EXTT3=
EXTT4=
EXTT5=
EXTT6=
EXTT7=
EXTT8=
EXTT9=
EXTT10=
EXTT11=
PLAYORDER=
